<?xml version="1.0" encoding="UTF-8"?>
<svg version="1.1" xmlns="http://www.w3.org/2000/svg" width="1080" height="1080">
<path d="M0 0 C0 0.66 0 1.32 0 2 C0.73734375 2.25007813 1.4746875 2.50015625 2.234375 2.7578125 C5.22554837 4.10130562 6.95437963 5.5530939 9.25 7.875 C9.93578125 8.55304688 10.6215625 9.23109375 11.328125 9.9296875 C13.02265402 12.02805287 13.59836978 13.36577827 14 16 C14.66 16 15.32 16 16 16 C16.33 17.32 16.66 18.64 17 20 C17.66 20 18.32 20 19 20 C19.33 21.65 19.66 23.3 20 25 C20.66 25 21.32 25 22 25 C27.55580866 38.44874715 27.55580866 38.44874715 28 46 C28.66 45.67 29.32 45.34 30 45 C42.85501817 44.1139479 55.84493717 44.60437736 66.1640625 53.3125 C66.76992188 53.869375 67.37578125 54.42625 68 55 C68.68835938 55.598125 69.37671875 56.19625 70.0859375 56.8125 C77.93983617 64.05326903 83.61884896 74.75813021 84.1875 85.5625 C84.0946875 86.7690625 84.0946875 86.7690625 84 88 C85.299375 88.20625 86.59875 88.4125 87.9375 88.625 C96.32996213 90.50902211 103.77301271 96.24743269 109 103 C115.28110093 113.36236928 117.38547969 122.82297919 117.3125 134.8125 C117.30686035 135.78155273 117.3012207 136.75060547 117.29541016 137.74902344 C117.03149797 153.3276813 112.1270246 164.34757972 101.4921875 175.734375 C92.75659194 183.67582551 82.53093408 186.3089774 71.02809143 186.27415466 C70.15937045 186.27939134 69.29064946 186.28462802 68.3956036 186.29002339 C65.50270199 186.30495022 62.6099784 186.30572693 59.71704102 186.30639648 C57.63509322 186.31402315 55.55314824 186.32245152 53.47120667 186.33161926 C47.82608541 186.3535273 42.18101831 186.36235878 36.53585935 186.36744571 C33.00256225 186.37109514 29.4692792 186.3773384 25.93598747 186.3844471 C13.59053808 186.40893352 1.24513063 186.42199073 -11.1003418 186.42553711 C-22.57577539 186.42916666 -34.0509406 186.45902271 -45.52629226 186.50094169 C-55.40180601 186.53574103 -65.27723128 186.55108726 -75.15280586 186.55178314 C-81.04037748 186.55257299 -86.92767582 186.56117584 -92.81518364 186.58978081 C-98.36147898 186.61612529 -103.90727773 186.61807575 -109.45360756 186.60212517 C-111.4766944 186.60032336 -113.49981087 186.60688508 -115.52283478 186.62294388 C-135.95957816 186.77513338 -154.22494875 182.97546057 -169.64819336 168.578125 C-183.84737858 154.52992081 -190.2033037 135.70336256 -190.3125 116.0625 C-190.32997492 106.21894109 -190.00853353 98.08162842 -186 89 C-185.45666016 87.49373047 -185.45666016 87.49373047 -184.90234375 85.95703125 C-180.1413041 73.22326759 -171.06330953 60.73300997 -159 54 C-158.01 54 -157.02 54 -156 54 C-156 53.34 -156 52.68 -156 52 C-153.91780951 51.18457569 -151.83420239 50.37276811 -149.75 49.5625 C-148.58984375 49.11003906 -147.4296875 48.65757812 -146.234375 48.19140625 C-141.96962177 46.62045246 -138.56652725 45.87459435 -134.015625 45.90234375 C-133.08105469 45.90556641 -132.14648438 45.90878906 -131.18359375 45.91210938 C-130.21550781 45.92048828 -129.24742187 45.92886719 -128.25 45.9375 C-126.77466797 45.94426758 -126.77466797 45.94426758 -125.26953125 45.95117188 C-122.84629209 45.96293517 -120.42317727 45.97937316 -118 46 C-117.86980469 44.95328125 -117.73960937 43.9065625 -117.60546875 42.828125 C-114.82310118 25.23638165 -103.67928694 9.96720115 -89.5 -0.4140625 C-61.17538064 -18.38249291 -28.03097848 -18.68731899 0 0 Z " fill="#FE7474" transform="translate(275,437)"/>
<path d="M0 0 C6.83124611 4.98111696 8.44705298 15.17865435 9.7265625 23.2043457 C10.27602667 27.01295563 10.75142079 30.83002966 11.209198 34.65063477 C11.70488787 38.7618072 12.2454395 42.8670679 12.78515625 46.97265625 C12.88953506 47.76999176 12.99391388 48.56732727 13.10145569 49.38882446 C15.26118795 65.694414 19.24054607 81.27186467 24 97 C23.93941406 96.27562744 23.87882813 95.55125488 23.81640625 94.80493164 C22.46053954 78.01174019 21.78371349 61.28639064 21.75 44.4375 C21.74500488 43.57158234 21.74000977 42.70566467 21.73486328 41.81350708 C21.5923001 11.76368323 21.5923001 11.76368323 28 5 C33.51638508 0.83456637 37.14174411 -0.12940105 44 0 C45.16253687 4.37158432 44.88038045 8.37305699 44.44140625 12.81640625 C44.30068737 14.38911543 44.16049061 15.96187139 44.02075195 17.53466797 C43.94555328 18.35594177 43.87035461 19.17721558 43.7928772 20.02337646 C42.24597139 37.07274156 41.58556708 53.87435652 42 71 C47.27749883 58.16570345 51.45170567 45.23219258 55.1875 31.875 C56.19260868 28.28637555 57.20855109 24.70105642 58.23046875 21.1171875 C58.45034958 20.31811981 58.67023041 19.51905212 58.89677429 18.69577026 C62.74823464 5.19063104 62.74823464 5.19063104 68.25 1.5 C72.27221038 -0.45463788 75.58775834 -0.5234863 80 0 C82.26177025 3.39265538 82.18491627 4.02779778 81.75 7.90234375 C81.64042969 8.88187012 81.53085937 9.86139648 81.41796875 10.87060547 C80.71689508 16.1196489 79.88037584 21.34085056 79 26.5625 C76.91804582 38.95616199 75.81330376 50.9037357 75.81469727 63.46899414 C75.81249385 65.69371214 75.79422478 67.91794624 75.77539062 70.14257812 C75.77245855 71.57812333 75.77047251 73.01367085 75.76953125 74.44921875 C75.76542236 75.73143311 75.76131348 77.01364746 75.75708008 78.3347168 C76.01263512 82.19064427 76.62850928 85.38674276 78 89 C78.99 89.33 79.98 89.66 81 90 C85.88184797 72.60545433 87.39133591 56.27094017 86.75097656 38.18457031 C86.51667977 26.93511465 88.66739742 16.75838641 96 8 C97.65 8.33 99.3 8.66 101 9 C102.98324744 15.32731447 102.24408727 22.42043413 102.25 29 C102.25100708 29.76776764 102.25201416 30.53553528 102.25305176 31.3265686 C102.24227895 43.44708292 101.61783768 55.12663921 99 67 C98.86078125 67.66402832 98.7215625 68.32805664 98.578125 69.01220703 C95.50991529 83.27014913 90.18749229 98.21189757 79.4375 108.4375 C76.723657 110.17714295 75.22796322 110.92314373 72 111 C66.82755607 109.36659665 63.87235154 107.61627926 61 103 C58.01908547 96.27165006 57.10960355 89.78282586 56.3125 82.5 C56.18294922 81.39140625 56.05339844 80.2828125 55.91992188 79.140625 C55.60422711 76.42798848 55.29783213 73.71464574 55 71 C54.79431396 71.56807373 54.58862793 72.13614746 54.37670898 72.72143555 C42.77580341 104.5395001 42.77580341 104.5395001 34 110 C31.8125 111 31.8125 111 30 111 C26.71298862 108.85080025 26.04948571 105.63283516 25 102 C24.57589844 102.48210937 24.15179687 102.96421875 23.71484375 103.4609375 C19.83223513 107.64220832 16.91372561 110.3548663 11 111 C7.60955971 110.13577012 5.79495794 109.20586525 3.84375 106.24609375 C0.74152607 99.86538317 -0.58990269 92.91161332 -2 86 C-4.9254644 85.7763932 -4.9254644 85.7763932 -7 87 C-9.88370333 87.07194869 -12.74239664 87.09291708 -15.625 87.0625 C-16.42679688 87.05798828 -17.22859375 87.05347656 -18.0546875 87.04882812 C-20.03649006 87.03703168 -22.01825433 87.01909605 -24 87 C-24.226875 88.27875 -24.45375 89.5575 -24.6875 90.875 C-26.22298288 97.67192769 -28.60509388 103.86540977 -33.875 108.5625 C-38.44818504 110.66616512 -42.06281338 111.61825105 -46.9375 110.0625 C-47.618125 109.711875 -48.29875 109.36125 -49 109 C-48.51928438 102.93350424 -47.15614116 98.41574853 -44.4375 93 C-43.9434668 91.98099609 -43.9434668 91.98099609 -43.43945312 90.94140625 C-42.63662717 89.28921371 -41.81978216 87.64384516 -41 86 C-41.63808594 85.7215625 -42.27617188 85.443125 -42.93359375 85.15625 C-45 84 -45 84 -46.0625 81.5 C-45.9594958 75.73176465 -43.11709474 70.83767217 -39.703125 66.26171875 C-37.3026458 64.4833821 -34.91612989 64.42442829 -32 64 C-31.66266846 62.98276855 -31.32533691 61.96553711 -30.9777832 60.91748047 C-29.70269376 57.07384802 -28.42548855 53.23092119 -27.14770508 49.38818359 C-26.59929339 47.73797901 -26.05142436 46.08759397 -25.50415039 44.43701172 C-24.70869046 42.03823706 -23.91113066 39.64016832 -23.11328125 37.2421875 C-22.8526741 36.45484222 -22.59206696 35.66749695 -22.32356262 34.85629272 C-21.1002807 31.18475502 -19.84448425 27.53666718 -18.46557617 23.92041016 C-18.00256104 22.6988623 -17.5395459 21.47731445 -17.0625 20.21875 C-16.64742187 19.16365234 -16.23234375 18.10855469 -15.8046875 17.02148438 C-14.49503375 12.10392526 -15.47252964 7.76726419 -17 3 C-11.49994553 -0.79139784 -6.50801812 -1.04851403 0 0 Z M-10 38 C-11.17322847 41.93557529 -12.33745371 45.87375727 -13.5 49.8125 C-13.83386719 50.93205078 -14.16773438 52.05160156 -14.51171875 53.20507812 C-14.82753906 54.27822266 -15.14335938 55.35136719 -15.46875 56.45703125 C-15.76201172 57.44678955 -16.05527344 58.43654785 -16.35742188 59.45629883 C-17.12246074 62.04750335 -17.12246074 62.04750335 -17 65 C-13.04 65 -9.08 65 -5 65 C-5.44861424 61.06116694 -5.90842693 57.12421029 -6.375 53.1875 C-6.50132812 52.06794922 -6.62765625 50.94839844 -6.7578125 49.79492188 C-6.88671875 48.72177734 -7.015625 47.64863281 -7.1484375 46.54296875 C-7.26364746 45.55321045 -7.37885742 44.56345215 -7.49755859 43.54370117 C-7.87673819 40.77002867 -7.87673819 40.77002867 -10 38 Z " fill="#FF7474" transform="translate(587,484)"/>
<path d="M0 0 C6.83124611 4.98111696 8.44705298 15.17865435 9.7265625 23.2043457 C10.27602667 27.01295563 10.75142079 30.83002966 11.209198 34.65063477 C11.70488787 38.7618072 12.2454395 42.8670679 12.78515625 46.97265625 C12.88953506 47.76999176 12.99391388 48.56732727 13.10145569 49.38882446 C15.26118795 65.694414 19.24054607 81.27186467 24 97 C24.18006592 95.8864917 24.18006592 95.8864917 24.36376953 94.75048828 C28.03871997 72.23407039 32.25220613 49.83109782 39 28 C38.34 28.33 37.68 28.66 37 29 C32.32422709 29.89377606 28.38072258 30.59173825 23.9375 28.6875 C22 27 22 27 21 25 C20.64877798 17.05932829 23.35569743 11.29638035 28 5 C28.4125 4.41863281 28.825 3.83726562 29.25 3.23828125 C34.98933286 -0.82280919 47.40572423 1.91386919 54.10107422 2.98193359 C54.85146973 3.11164551 55.60186523 3.24135742 56.375 3.375 C57.47158936 3.56376709 57.47158936 3.56376709 58.59033203 3.75634766 C63.7368021 4.7368021 63.7368021 4.7368021 66 7 C67.69260399 11.65466098 66.66860952 16.45389038 65 21 C62.92417427 23.60507309 62.1931636 23.95833726 58.8125 24.6875 C57.884375 24.790625 56.95625 24.89375 56 25 C56.18060974 25.70107376 56.36121948 26.40214752 56.54730225 27.12446594 C57.0549949 30.34932736 56.77056411 32.79021376 56.24316406 36.00854492 C55.9572641 37.79146187 55.9572641 37.79146187 55.66558838 39.61039734 C55.45110046 40.8875209 55.23661255 42.16464447 55.015625 43.48046875 C54.79659711 44.81690592 54.57816206 46.15344036 54.36029053 47.49006653 C53.90173662 50.29097044 53.43703691 53.09076354 52.96777344 55.88989258 C52.37116063 59.45074817 51.78819071 63.01366738 51.20972061 66.57750988 C50.75999288 69.34012148 50.30367718 72.10161431 49.84539032 74.86281776 C49.52376145 76.80630318 49.20691716 78.75057848 48.89019775 80.69487 C45.32954233 101.79807957 45.32954233 101.79807957 38 108 C35.53904037 109.66780266 33.97620198 110.24242131 31 111 C27.44597877 109.73634801 26.34110745 108.6984581 24.6875 105.3125 C24.460625 104.549375 24.23375 103.78625 24 103 C23.48050781 103.49371094 22.96101562 103.98742187 22.42578125 104.49609375 C21.72839844 105.13675781 21.03101563 105.77742187 20.3125 106.4375 C19.62800781 107.07558594 18.94351563 107.71367188 18.23828125 108.37109375 C15.73108885 110.19569973 14.06921944 110.71782983 11 111 C7.74603074 110.0702945 5.74419174 109.1187849 3.8359375 106.25 C0.75624699 99.85552809 -0.58900596 92.91600866 -2 86 C-4.9254644 85.7763932 -4.9254644 85.7763932 -7 87 C-9.88370333 87.07194869 -12.74239664 87.09291708 -15.625 87.0625 C-16.42679688 87.05798828 -17.22859375 87.05347656 -18.0546875 87.04882812 C-20.03649006 87.03703168 -22.01825433 87.01909605 -24 87 C-24.226875 88.27875 -24.45375 89.5575 -24.6875 90.875 C-26.22298288 97.67192769 -28.60509388 103.86540977 -33.875 108.5625 C-38.44818504 110.66616512 -42.06281338 111.61825105 -46.9375 110.0625 C-47.618125 109.711875 -48.29875 109.36125 -49 109 C-48.51928438 102.93350424 -47.15614116 98.41574853 -44.4375 93 C-43.9434668 91.98099609 -43.9434668 91.98099609 -43.43945312 90.94140625 C-42.63662717 89.28921371 -41.81978216 87.64384516 -41 86 C-41.63808594 85.7215625 -42.27617188 85.443125 -42.93359375 85.15625 C-45 84 -45 84 -46.0625 81.5 C-45.9594958 75.73176465 -43.11709474 70.83767217 -39.703125 66.26171875 C-37.3026458 64.4833821 -34.91612989 64.42442829 -32 64 C-31.66266846 62.98276855 -31.32533691 61.96553711 -30.9777832 60.91748047 C-29.70269376 57.07384802 -28.42548855 53.23092119 -27.14770508 49.38818359 C-26.59929339 47.73797901 -26.05142436 46.08759397 -25.50415039 44.43701172 C-24.70869046 42.03823706 -23.91113066 39.64016832 -23.11328125 37.2421875 C-22.8526741 36.45484222 -22.59206696 35.66749695 -22.32356262 34.85629272 C-21.1002807 31.18475502 -19.84448425 27.53666718 -18.46557617 23.92041016 C-18.00256104 22.6988623 -17.5395459 21.47731445 -17.0625 20.21875 C-16.64742187 19.16365234 -16.23234375 18.10855469 -15.8046875 17.02148438 C-14.49503375 12.10392526 -15.47252964 7.76726419 -17 3 C-11.49994553 -0.79139784 -6.50801812 -1.04851403 0 0 Z M-10 38 C-11.17322847 41.93557529 -12.33745371 45.87375727 -13.5 49.8125 C-13.83386719 50.93205078 -14.16773438 52.05160156 -14.51171875 53.20507812 C-14.82753906 54.27822266 -15.14335938 55.35136719 -15.46875 56.45703125 C-15.76201172 57.44678955 -16.05527344 58.43654785 -16.35742188 59.45629883 C-17.12246074 62.04750335 -17.12246074 62.04750335 -17 65 C-13.04 65 -9.08 65 -5 65 C-5.44861424 61.06116694 -5.90842693 57.12421029 -6.375 53.1875 C-6.50132812 52.06794922 -6.62765625 50.94839844 -6.7578125 49.79492188 C-6.88671875 48.72177734 -7.015625 47.64863281 -7.1484375 46.54296875 C-7.26364746 45.55321045 -7.37885742 44.56345215 -7.49755859 43.54370117 C-7.87673819 40.77002867 -7.87673819 40.77002867 -10 38 Z " fill="#FF7474" transform="translate(884,484)"/>
<path d="M0 0 C2.9336317 0.60841232 4.19624742 2.00599639 5.90234375 4.39453125 C8.06055769 10.86917307 6.72923646 17.45379475 5.40625 23.98046875 C5.25324936 24.76346344 5.10024872 25.54645813 4.94261169 26.35317993 C4.62079733 27.99249958 4.29539912 29.63111945 3.96655273 31.26904297 C3.46234578 33.781981 2.96953848 36.29695591 2.47851562 38.8125 C2.16341713 40.4102859 1.84768471 42.00794694 1.53125 43.60546875 C1.38329483 44.3575058 1.23533966 45.10954285 1.082901 45.8843689 C0.01910687 51.16100501 0.01910687 51.16100501 -1.09765625 53.39453125 C4.51234375 53.39453125 10.12234375 53.39453125 15.90234375 53.39453125 C16.12148438 51.98945312 16.340625 50.584375 16.56640625 49.13671875 C18.24733812 38.73702772 20.19444547 28.50169438 22.96484375 18.33203125 C23.20992676 17.42372559 23.45500977 16.51541992 23.70751953 15.57958984 C26.8345877 4.4622873 26.8345877 4.4622873 30.90234375 0.39453125 C32.9609375 0.09375 32.9609375 0.09375 35.33984375 0.08203125 C36.51353516 0.05689453 36.51353516 0.05689453 37.7109375 0.03125 C40.42159783 0.4806108 41.2495501 1.23629612 42.90234375 3.39453125 C45.86308966 12.27676897 43.45850878 22.25900224 41.52734375 31.14453125 C41.305625 32.21574219 41.08390625 33.28695312 40.85546875 34.390625 C39.66301167 40.09337562 38.36016752 45.75397947 36.90234375 51.39453125 C37.70671875 51.76578125 38.51109375 52.13703125 39.33984375 52.51953125 C41.90234375 54.39453125 41.90234375 54.39453125 42.96484375 57.01953125 C42.84375182 63.55849551 39.50061076 69.79626424 34.90234375 74.39453125 C33.91234375 74.39453125 32.92234375 74.39453125 31.90234375 74.39453125 C31.7321875 75.31492187 31.56203125 76.2353125 31.38671875 77.18359375 C26.2075701 104.23638087 26.2075701 104.23638087 18.58984375 110.20703125 C15.16700126 111.71945003 12.60555782 111.74389107 8.90234375 111.39453125 C6.21501532 108.70720282 6.57203231 107.34927695 6.52734375 103.58203125 C6.63084256 93.6564949 8.83863749 84.06815433 10.90234375 74.39453125 C2.98234375 74.88953125 2.98234375 74.88953125 -5.09765625 75.39453125 C-5.4121875 77.17859375 -5.72671875 78.96265625 -6.05078125 80.80078125 C-6.48243288 83.1654815 -6.91476027 85.53005848 -7.34765625 87.89453125 C-7.55261719 89.06757812 -7.75757813 90.240625 -7.96875 91.44921875 C-9.1970595 98.07464576 -10.55481804 103.62712021 -14.09765625 109.39453125 C-17.19546573 111.45973757 -18.05170435 111.68930149 -21.59765625 111.70703125 C-22.7578125 111.73216797 -22.7578125 111.73216797 -23.94140625 111.7578125 C-26.62633611 111.30546019 -27.4564403 110.5311142 -29.09765625 108.39453125 C-32.2746291 98.86361271 -28.22903905 85.96564648 -26.09765625 76.39453125 C-27.08765625 76.06453125 -28.07765625 75.73453125 -29.09765625 75.39453125 C-29.61035578 68.44460431 -29.12439009 63.22588828 -25.09765625 57.39453125 C-24.61256592 57.01248535 -24.12747559 56.63043945 -23.62768555 56.23681641 C-21.39527273 53.54880187 -21.05172 50.57649236 -20.44921875 47.2265625 C-20.24031509 46.15785164 -20.24031509 46.15785164 -20.02719116 45.06755066 C-19.5813548 42.78266654 -19.15052259 40.49534347 -18.72265625 38.20703125 C-17.03167228 29.21291455 -15.25459625 20.30464298 -12.62109375 11.53125 C-12.43028229 10.8705098 -12.23947083 10.20976959 -12.0428772 9.52900696 C-9.91293051 2.75824709 -7.05738603 -0.35484064 0 0 Z " fill="#FF7474" transform="translate(494.09765625,483.60546875)"/>
<path d="M0 0 C1.40185547 -0.03347534 1.40185547 -0.03347534 2.83203125 -0.06762695 C10.43049895 -0.04263199 15.61511913 1.81294857 21.4375 6.6875 C30.11041544 17.00123728 32.31986331 28.11645657 32.1875 41.4375 C32.18065186 42.51547852 32.17380371 43.59345703 32.16674805 44.70410156 C31.74662073 66.04719865 26.32524958 87.53538642 11.3125 103.375 C3.73695954 110.50492043 -3.84936959 112.88452531 -14.25 113.4375 C-21.89292084 112.95344835 -29.61569079 112.07180921 -35.25 106.4375 C-36.5309945 98.12789995 -34.21829792 89.40452068 -32.6953125 81.26953125 C-32.43039007 79.82097924 -32.16615089 78.37230212 -31.90255737 76.92350769 C-31.35140789 73.90444398 -30.79450238 70.88652311 -30.23291016 67.86938477 C-29.51613774 64.01788009 -28.81019017 60.1644938 -28.10807991 56.31029224 C-27.56369505 53.32506429 -27.01548153 50.34055027 -26.46593857 47.35626793 C-26.20448897 45.93594429 -25.94376662 44.51548656 -25.68381119 43.09488869 C-25.31899138 41.1066257 -24.94889779 39.1193326 -24.57861328 37.13208008 C-24.36987579 36.0053035 -24.16113831 34.87852692 -23.94607544 33.71760559 C-23.20476808 30.22435431 -22.2681198 26.85904598 -21.25 23.4375 C-24.88 24.7575 -28.51 26.0775 -32.25 27.4375 C-34.25 25.4375 -34.25 25.4375 -34.3671875 23.5546875 C-33.58583932 16.32091565 -31.60957727 11.09202443 -26.75 5.625 C-19.03159779 0.02537487 -9.14802326 0.13135857 0 0 Z M-1.25 20.4375 C-1.39589569 21.33872589 -1.54179138 22.23995178 -1.69210815 23.16848755 C-3.06983473 31.67336539 -4.45234411 40.17744903 -5.84019279 48.68068123 C-6.55348182 53.05199817 -7.26493653 57.42359702 -7.97216797 61.79589844 C-8.65511463 66.01763285 -9.34292033 70.23854968 -10.03406143 74.45895004 C-10.29652202 76.06695423 -10.55724877 77.67524243 -10.81618881 79.28381729 C-11.17996215 81.54171965 -11.54996125 83.79852137 -11.92138672 86.05517578 C-12.23449295 87.98044601 -12.23449295 87.98044601 -12.55392456 89.9446106 C-13.21029802 93.23827642 -14.1103159 96.28228909 -15.25 99.4375 C-10.70946318 99.80074295 -7.24414766 99.90533419 -3.0625 97.9375 C8.13667584 87.98267703 11.74084238 73.93491074 12.75 59.4375 C13.39200543 47.82303808 12.39561343 33.43545236 5.484375 23.64453125 C4.09743673 22.06866903 4.09743673 22.06866903 1.75 20.4375 C0.76 20.4375 -0.23 20.4375 -1.25 20.4375 Z " fill="#FF7474" transform="translate(801.25,481.5625)"/>
<path d="M0 0 C6.83124611 4.98111696 8.44705298 15.17865435 9.7265625 23.2043457 C10.27600123 27.01267554 10.75121073 30.82948148 11.20892334 34.64981079 C11.7054258 38.76524252 12.24803662 42.87459722 12.7890625 46.984375 C12.89364777 47.78232986 12.99823303 48.58028473 13.10598755 49.40242004 C15.0512783 64.0929477 18.32408234 78.03041429 22.89013672 92.13598633 C23.19193848 93.10173584 23.49374023 94.06748535 23.8046875 95.0625 C24.08296387 95.91972656 24.36124023 96.77695312 24.64794922 97.66015625 C25.07623659 100.5066931 24.55201234 101.62136888 23 104 C20.19947474 107.01215186 17.24716112 109.48288441 13.4375 111.0625 C9.75933147 110.96818799 8.00000805 110.17021859 5 108 C0.71025538 101.55098796 -0.47896722 93.4553652 -2 86 C-4.9254644 85.7763932 -4.9254644 85.7763932 -7 87 C-9.88370333 87.07194869 -12.74239664 87.09291708 -15.625 87.0625 C-16.42679688 87.05798828 -17.22859375 87.05347656 -18.0546875 87.04882812 C-20.03649006 87.03703168 -22.01825433 87.01909605 -24 87 C-24.226875 88.27875 -24.45375 89.5575 -24.6875 90.875 C-26.22298288 97.67192769 -28.60509388 103.86540977 -33.875 108.5625 C-38.44818504 110.66616512 -42.06281338 111.61825105 -46.9375 110.0625 C-47.618125 109.711875 -48.29875 109.36125 -49 109 C-48.51928438 102.93350424 -47.15614116 98.41574853 -44.4375 93 C-43.9434668 91.98099609 -43.9434668 91.98099609 -43.43945312 90.94140625 C-42.63662717 89.28921371 -41.81978216 87.64384516 -41 86 C-41.63808594 85.7215625 -42.27617188 85.443125 -42.93359375 85.15625 C-45 84 -45 84 -46.0625 81.5 C-45.9594958 75.73176465 -43.11709474 70.83767217 -39.703125 66.26171875 C-37.3026458 64.4833821 -34.91612989 64.42442829 -32 64 C-31.66266846 62.98276855 -31.32533691 61.96553711 -30.9777832 60.91748047 C-29.70269376 57.07384802 -28.42548855 53.23092119 -27.14770508 49.38818359 C-26.59929339 47.73797901 -26.05142436 46.08759397 -25.50415039 44.43701172 C-24.70869046 42.03823706 -23.91113066 39.64016832 -23.11328125 37.2421875 C-22.8526741 36.45484222 -22.59206696 35.66749695 -22.32356262 34.85629272 C-21.1002807 31.18475502 -19.84448425 27.53666718 -18.46557617 23.92041016 C-18.00256104 22.6988623 -17.5395459 21.47731445 -17.0625 20.21875 C-16.64742187 19.16365234 -16.23234375 18.10855469 -15.8046875 17.02148438 C-14.49503375 12.10392526 -15.47252964 7.76726419 -17 3 C-11.49994553 -0.79139784 -6.50801812 -1.04851403 0 0 Z M-10 38 C-11.17322847 41.93557529 -12.33745371 45.87375727 -13.5 49.8125 C-13.83386719 50.93205078 -14.16773438 52.05160156 -14.51171875 53.20507812 C-14.82753906 54.27822266 -15.14335938 55.35136719 -15.46875 56.45703125 C-15.76201172 57.44678955 -16.05527344 58.43654785 -16.35742188 59.45629883 C-17.12246074 62.04750335 -17.12246074 62.04750335 -17 65 C-13.04 65 -9.08 65 -5 65 C-5.44861424 61.06116694 -5.90842693 57.12421029 -6.375 53.1875 C-6.50132812 52.06794922 -6.62765625 50.94839844 -6.7578125 49.79492188 C-6.88671875 48.72177734 -7.015625 47.64863281 -7.1484375 46.54296875 C-7.26364746 45.55321045 -7.37885742 44.56345215 -7.49755859 43.54370117 C-7.87673819 40.77002867 -7.87673819 40.77002867 -10 38 Z " fill="#FF7474" transform="translate(996,484)"/>
<path d="M0 0 C6.83124611 4.98111696 8.44705298 15.17865435 9.7265625 23.2043457 C10.27600123 27.01267554 10.75121073 30.82948148 11.20892334 34.64981079 C11.7054258 38.76524252 12.24803662 42.87459722 12.7890625 46.984375 C12.89364777 47.78232986 12.99823303 48.58028473 13.10598755 49.40242004 C15.0512783 64.0929477 18.32408234 78.03041429 22.89013672 92.13598633 C23.19193848 93.10173584 23.49374023 94.06748535 23.8046875 95.0625 C24.08296387 95.91972656 24.36124023 96.77695312 24.64794922 97.66015625 C25.07623659 100.5066931 24.55201234 101.62136888 23 104 C20.19947474 107.01215186 17.24716112 109.48288441 13.4375 111.0625 C9.75933147 110.96818799 8.00000805 110.17021859 5 108 C0.71025538 101.55098796 -0.47896722 93.4553652 -2 86 C-4.9254644 85.7763932 -4.9254644 85.7763932 -7 87 C-9.88370333 87.07194869 -12.74239664 87.09291708 -15.625 87.0625 C-16.42679688 87.05798828 -17.22859375 87.05347656 -18.0546875 87.04882812 C-20.03649006 87.03703168 -22.01825433 87.01909605 -24 87 C-24.226875 88.27875 -24.45375 89.5575 -24.6875 90.875 C-26.22298288 97.67192769 -28.60509388 103.86540977 -33.875 108.5625 C-38.44818504 110.66616512 -42.06281338 111.61825105 -46.9375 110.0625 C-47.618125 109.711875 -48.29875 109.36125 -49 109 C-48.51928438 102.93350424 -47.15614116 98.41574853 -44.4375 93 C-43.9434668 91.98099609 -43.9434668 91.98099609 -43.43945312 90.94140625 C-42.63662717 89.28921371 -41.81978216 87.64384516 -41 86 C-41.63808594 85.7215625 -42.27617188 85.443125 -42.93359375 85.15625 C-45 84 -45 84 -46.0625 81.5 C-45.9594958 75.73176465 -43.11709474 70.83767217 -39.703125 66.26171875 C-37.3026458 64.4833821 -34.91612989 64.42442829 -32 64 C-31.66266846 62.98276855 -31.32533691 61.96553711 -30.9777832 60.91748047 C-29.70269376 57.07384802 -28.42548855 53.23092119 -27.14770508 49.38818359 C-26.59929339 47.73797901 -26.05142436 46.08759397 -25.50415039 44.43701172 C-24.70869046 42.03823706 -23.91113066 39.64016832 -23.11328125 37.2421875 C-22.8526741 36.45484222 -22.59206696 35.66749695 -22.32356262 34.85629272 C-21.1002807 31.18475502 -19.84448425 27.53666718 -18.46557617 23.92041016 C-18.00256104 22.6988623 -17.5395459 21.47731445 -17.0625 20.21875 C-16.64742187 19.16365234 -16.23234375 18.10855469 -15.8046875 17.02148438 C-14.49503375 12.10392526 -15.47252964 7.76726419 -17 3 C-11.49994553 -0.79139784 -6.50801812 -1.04851403 0 0 Z M-10 38 C-11.17322847 41.93557529 -12.33745371 45.87375727 -13.5 49.8125 C-13.83386719 50.93205078 -14.16773438 52.05160156 -14.51171875 53.20507812 C-14.82753906 54.27822266 -15.14335938 55.35136719 -15.46875 56.45703125 C-15.76201172 57.44678955 -16.05527344 58.43654785 -16.35742188 59.45629883 C-17.12246074 62.04750335 -17.12246074 62.04750335 -17 65 C-13.04 65 -9.08 65 -5 65 C-5.44861424 61.06116694 -5.90842693 57.12421029 -6.375 53.1875 C-6.50132812 52.06794922 -6.62765625 50.94839844 -6.7578125 49.79492188 C-6.88671875 48.72177734 -7.015625 47.64863281 -7.1484375 46.54296875 C-7.26364746 45.55321045 -7.37885742 44.56345215 -7.49755859 43.54370117 C-7.87673819 40.77002867 -7.87673819 40.77002867 -10 38 Z " fill="#FF7474" transform="translate(740,484)"/>
<path d="M0 0 C7.9275737 3.33424423 12.12978215 8.47610805 15.3359375 16.32421875 C18.22851149 24.73756567 18.44015906 33.45371704 14.6875 41.625 C9.26161394 51.25403723 1.53157635 58.65455644 -8.9375 62.4375 C-13.86306904 63.76131996 -18.79246675 63.5778584 -23.85253906 63.56689453 C-25.34352112 63.56952301 -25.34352112 63.56952301 -26.86462402 63.57220459 C-30.14414219 63.57659971 -33.4236063 63.57369423 -36.703125 63.5703125 C-38.98044851 63.570986 -41.25777195 63.57195641 -43.53509521 63.57321167 C-48.30302618 63.57468529 -53.0709384 63.57254404 -57.83886719 63.56787109 C-63.96492115 63.56216106 -70.09093142 63.56546299 -76.2169838 63.57144356 C-80.91624281 63.57504718 -85.61549136 63.57391173 -90.31475067 63.57131577 C-92.57470454 63.57064661 -94.83465935 63.57147451 -97.09461212 63.57379532 C-100.24311361 63.57631998 -103.39154298 63.57248449 -106.54003906 63.56689453 C-107.48236389 63.56891876 -108.42468872 63.57094299 -109.39556885 63.57302856 C-115.82323498 63.55176502 -115.82323498 63.55176502 -116.9375 62.4375 C-117.17478814 55.91207627 -117.17478814 55.91207627 -115.9375 53.4375 C-114.70023666 53.42941315 -113.46297333 53.42132629 -112.18821716 53.41299438 C-100.52040329 53.33546386 -88.85270503 53.24770696 -77.18504238 53.14997292 C-71.18678024 53.10005627 -65.18853531 53.05372565 -59.19018555 53.015625 C-53.39998068 52.97871394 -47.60992147 52.93233786 -41.81984138 52.87943649 C-39.61232118 52.86092353 -37.40476978 52.84580417 -35.19720268 52.83415604 C-32.10193891 52.81724075 -29.00700649 52.78819248 -25.91186523 52.75634766 C-25.00195831 52.75418747 -24.09205139 52.75202728 -23.15457153 52.74980164 C-14.10728072 52.63112389 -7.68482119 50.66579648 -0.9375 44.4375 C4.44269515 38.3818691 6.41542828 33.83284089 6.26953125 25.7421875 C5.77896339 20.28114903 3.63306947 16.68581708 -0.375 13.125 C-5.13989091 9.23420541 -8.68181524 7.81193152 -14.9375 8.4375 C-18.60887081 9.72546734 -21.96852939 10.95756096 -24.15234375 14.29296875 C-25.01995166 16.66270379 -25.2045427 18.48194094 -25.1875 21 C-25.19265625 21.76441406 -25.1978125 22.52882813 -25.203125 23.31640625 C-25.0604561 25.73732762 -25.0604561 25.73732762 -22.9375 28.4375 C-20.88234507 29.05694953 -20.88234507 29.05694953 -18.5625 29.1875 C-17.79164063 29.26484375 -17.02078125 29.3421875 -16.2265625 29.421875 C-13.9406134 29.43747875 -12.11765822 29.09453398 -9.9375 28.4375 C-10.24724383 31.32844238 -10.97920446 32.48441751 -12.9375 34.6875 C-16.96959638 37.03955622 -20.36556437 37.11076449 -24.9375 36.4375 C-30.0318221 34.89915387 -32.02024286 32.49316482 -34.75390625 28.0625 C-36.84285196 23.4295907 -36.96640945 19.38043659 -35.9375 14.4375 C-33.08179354 7.16372594 -28.9113271 2.81446582 -21.9375 -0.5625 C-15.78393518 -3.63928241 -6.3123051 -2.05149916 0 0 Z " fill="#FEDDDD" transform="translate(264.9375,470.5625)"/>
<path d="M0 0 C1.12148438 -0.01417969 2.24296875 -0.02835938 3.3984375 -0.04296875 C6.57384842 0.18384632 8.76734718 0.83359332 11.625 2.1875 C11.625 2.8475 11.625 3.5075 11.625 4.1875 C12.2025 4.414375 12.78 4.64125 13.375 4.875 C17.16864023 7.0879568 19.22555388 10.58833082 21.625 14.1875 C22.51578657 21.85240773 22.3933257 28.00156395 17.625 34.1875 C13.03233662 39.67318126 8.17975334 42.82606495 1.05694771 43.55028725 C-3.4971572 43.74024844 -8.05037182 43.69420751 -12.60717773 43.6574707 C-14.36040883 43.65797994 -16.11364016 43.66023847 -17.86686707 43.66410828 C-22.61026525 43.66951229 -27.35327063 43.65016085 -32.09659839 43.62600732 C-37.06089213 43.60467847 -42.02518493 43.60530498 -46.98951721 43.60331726 C-55.31754299 43.59687767 -63.64542146 43.57565411 -71.97338867 43.54418945 C-82.67640594 43.50380569 -93.37932754 43.48648736 -104.08241177 43.47688007 C-113.27702816 43.46859348 -122.47162415 43.45135755 -131.66622281 43.43184257 C-134.62712029 43.42576889 -137.58801854 43.42063003 -140.54891777 43.4154911 C-145.18889849 43.40673423 -149.82883133 43.39245092 -154.46878242 43.3737812 C-156.17606201 43.36764031 -157.88334865 43.36320042 -159.59063721 43.36053848 C-161.91080766 43.35657987 -164.23086836 43.34648469 -166.55101013 43.33467102 C-167.852331 43.33039754 -169.15365187 43.32612406 -170.4944067 43.32172108 C-173.375 43.1875 -173.375 43.1875 -174.375 42.1875 C-174.61029412 36.65808824 -174.61029412 36.65808824 -173.375 34.1875 C-172.54713344 34.18115209 -172.54713344 34.18115209 -171.7025423 34.17467594 C-164.37070055 34.11835747 -157.03886458 34.06131092 -149.70703125 34.00390625 C-148.48909441 33.99437109 -147.27115757 33.98483593 -146.01631355 33.97501183 C-131.29742306 33.85929372 -116.57860334 33.73799223 -101.85986328 33.60449219 C-101.18871994 33.59841233 -100.5175766 33.59233248 -99.82609558 33.58606839 C-93.76767232 33.53113422 -87.70925207 33.47588123 -81.65084076 33.4196434 C-68.19568287 33.29478079 -54.74074328 33.17365102 -41.28513622 33.11044598 C-34.6965961 33.07939315 -28.10842881 33.02869399 -21.52011108 32.96652222 C-19.01823049 32.94726281 -16.51626694 32.93670379 -14.01431274 32.93508911 C-10.66255532 32.93209027 -7.3124164 32.89989029 -3.9609375 32.859375 C-3.02190079 32.86647995 -2.08286407 32.8735849 -1.1153717 32.88090515 C4.10238132 32.84852506 4.10238132 32.84852506 8.09912109 29.64550781 C8.60266113 28.83436523 9.10620117 28.02322266 9.625 27.1875 C10.285 27.1875 10.945 27.1875 11.625 27.1875 C11.75638448 20.34755902 11.75638448 20.34755902 9.31640625 14.12109375 C6.11537258 11.05312845 3.44192152 9.82863129 -1 9.6875 C-5.96777518 10.06609769 -5.96777518 10.06609769 -10.375 12.1875 C-11.07991267 14.50956525 -11.74712429 16.84343068 -12.375 19.1875 C-14.5 20.625 -14.5 20.625 -16.375 21.1875 C-18.375 19.1875 -18.375 19.1875 -18.625 15.875 C-18.24487963 10.26822448 -17.10828521 7.64193159 -12.9375 3.9375 C-8.74811026 0.42673711 -5.40491408 0.03092056 0 0 Z " fill="#FEDDDD" transform="translate(304.375,515.8125)"/>
<path d="M0 0 C0.9789473 -0.01299637 1.95789459 -0.02599274 2.96650696 -0.03938293 C13.23955838 -0.16644491 23.51344822 -0.22291896 33.78710938 -0.27441406 C38.65964323 -0.30111888 43.53119361 -0.34978762 48.40332031 -0.41796875 C54.28550623 -0.50008051 60.1667582 -0.54262546 66.04948616 -0.55747795 C68.28816523 -0.56970327 70.52681462 -0.59568377 72.76516533 -0.6359272 C92.49237812 -0.97269606 92.49237812 -0.97269606 99.00244141 4.12353516 C104.30984173 9.50984161 105.81476409 13.36532936 105.93188477 20.92797852 C105.82045443 28.97882024 105.82045443 28.97882024 102.36938477 32.80297852 C100.12421088 34.83929901 98.4492875 36.11301814 95.68188477 37.24047852 C95.68188477 37.90047852 95.68188477 38.56047852 95.68188477 39.24047852 C90.03827824 41.12168069 83.03357292 41.32040475 77.34204102 39.48657227 C74.87064251 38.15421155 72.98866638 36.62729012 71.24438477 34.42797852 C70.44967675 31.33744734 70.5598481 28.41343191 70.68188477 25.24047852 C72.47875977 24.55688477 72.47875977 24.55688477 74.68188477 24.24047852 C76.32250977 25.45532227 76.32250977 25.45532227 77.93188477 27.17797852 C80.555278 29.59307658 82.20507651 30.72276536 85.80688477 30.86547852 C90.13148142 30.16796293 91.85899953 29.57661562 94.68188477 26.24047852 C96.04915132 21.89739652 96.10606884 20.05742562 93.99438477 15.99047852 C90.66012392 11.79548998 90.66012392 11.79548998 85.81280327 9.96708679 C83.3886528 9.85113655 80.98159504 9.83854685 78.5546875 9.85571289 C77.63233307 9.85034012 76.70997864 9.84496735 75.75967407 9.83943176 C73.75881991 9.82965416 71.75792334 9.82670956 69.75704765 9.82978821 C66.59263175 9.83426081 63.42877665 9.8202826 60.26441956 9.8013916 C52.40734654 9.75833434 44.55028555 9.74734556 36.69311523 9.73516846 C30.0513071 9.72365814 23.40975447 9.70015071 16.76805305 9.66047668 C13.64640342 9.64686338 10.52509501 9.65108478 7.40342712 9.65588379 C5.49550943 9.64654686 3.58759555 9.63637898 1.6796875 9.62524414 C0.80843735 9.63139236 -0.06281281 9.63754059 -0.96046448 9.64387512 C-6.88213698 9.58298225 -6.88213698 9.58298225 -9.04876614 7.88088226 C-10.8029111 5.61396768 -10.61185807 4.03103541 -10.31811523 1.24047852 C-8.14355219 -0.93408453 -3.02412406 0.02903863 0 0 Z " fill="#FEE1E1" transform="translate(170.318115234375,574.759521484375)"/>
<path d="M0 0 C0.66 0 1.32 0 2 0 C0.61085525 4.29718953 -1.38031985 6.70687757 -4.625 9.8125 C-5.44226563 10.60269531 -6.25953125 11.39289062 -7.1015625 12.20703125 C-7.72804688 12.79871094 -8.35453125 13.39039063 -9 14 C-9.66 13.34 -10.32 12.68 -11 12 C-10.37351562 11.38511719 -9.74703125 10.77023437 -9.1015625 10.13671875 C-8.28429687 9.32847656 -7.46703125 8.52023437 -6.625 7.6875 C-5.40683594 6.48673828 -5.40683594 6.48673828 -4.1640625 5.26171875 C-1.87395158 2.99990063 -1.87395158 2.99990063 0 0 Z " fill="#FE8484" transform="translate(277,515)"/>
<path d="M0 0 C-1.38188453 3.21043882 -2.92421903 5.04936365 -5.625 7.25 C-6.57246094 8.03117188 -6.57246094 8.03117188 -7.5390625 8.828125 C-8.02117187 9.21484375 -8.50328125 9.6015625 -9 10 C-9 6 -9 6 -7.5390625 4.296875 C-6.90742188 3.78640625 -6.27578125 3.2759375 -5.625 2.75 C-4.99851562 2.22921875 -4.37203125 1.7084375 -3.7265625 1.171875 C-2 0 -2 0 0 0 Z " fill="#FECCCC" transform="translate(297,517)"/>
<path d="M0 0 C-1.13719419 3.41158256 -2.04342944 4.11854601 -5 6 C-5.66 6 -6.32 6 -7 6 C-5.52522876 2.59668175 -4.14385429 0 0 0 Z " fill="#FE8787" transform="translate(247,480)"/>
</svg>
