<?xml version="1.0" encoding="UTF-8"?>
<svg version="1.1" xmlns="http://www.w3.org/2000/svg" width="933" height="342">
<path d="M0 0 C3.46574694 2.85257633 6.23972359 6.17512086 9.03125 9.671875 C9.711875 10.435 10.3925 11.198125 11.09375 11.984375 C16.34434449 19.26745767 21.45742387 27.50913686 21.03125 36.671875 C22.02125 36.341875 23.01125 36.011875 24.03125 35.671875 C36.45562918 34.6885147 46.19345173 37.43429388 55.90625 45.1640625 C62.21591038 50.8481962 65.69638048 58.22318175 66.71875 66.609375 C67.03229042 68.8201696 67.03229042 68.8201696 68.03125 70.671875 C70.38361312 72.02516498 72.71380089 72.77271495 75.296875 73.59765625 C82.74049265 76.52193461 88.77269594 83.46117908 92.03125 90.671875 C94.35614526 96.9589157 94.36418259 102.95243645 94.34375 109.609375 C94.35986328 110.65544922 94.37597656 111.70152344 94.39257812 112.77929688 C94.40014503 124.81824513 89.87989577 133.61650779 81.78125 142.421875 C74.73277023 149.17208948 66.53123879 151.78695228 56.99403381 151.81904602 C56.28516681 151.82272271 55.5762998 151.8263994 54.84595197 151.8301875 C52.470292 151.84120146 50.0946758 151.84506436 47.71899414 151.84887695 C46.01537945 151.85514358 44.31176613 151.86179055 42.6081543 151.86878967 C37.0109146 151.88981742 31.41367469 151.90019422 25.81640625 151.91015625 C23.8863009 151.91420497 21.95619569 151.91832193 20.02609062 151.92250633 C10.95290613 151.94155904 1.87972975 151.95578715 -7.1934709 151.9641183 C-17.64716026 151.9738766 -28.10063708 152.00015895 -38.55425161 152.04061919 C-46.64534075 152.07085385 -54.73636925 152.08559433 -62.82751375 152.08889931 C-67.65418308 152.09124237 -72.48062538 152.10010476 -77.30723381 152.12536049 C-81.85535606 152.14877364 -86.40310398 152.15282165 -90.95127106 152.14259911 C-92.61159834 152.14210676 -94.27194488 152.14833736 -95.93221474 152.16215515 C-111.19488024 152.28196934 -126.05448188 149.61720093 -137.84375 139.109375 C-138.545 138.305 -139.24625 137.500625 -139.96875 136.671875 C-141.1753125 135.5271875 -141.1753125 135.5271875 -142.40625 134.359375 C-155.01187223 121.13884437 -157.47474054 105.85580761 -157.25 88.21875 C-156.89494744 77.6878912 -153.00021582 68.82156113 -147.96875 59.671875 C-147.535625 58.785 -147.1025 57.898125 -146.65625 56.984375 C-143.96297677 53.29359316 -140.47339837 50.57155431 -136.96875 47.671875 C-135.793125 46.62 -135.793125 46.62 -134.59375 45.546875 C-126.01231059 39.41727542 -117.04754822 36.29671603 -106.53125 36.546875 C-105.43393555 36.56041016 -105.43393555 36.56041016 -104.31445312 36.57421875 C-102.53240702 36.59751347 -100.75053241 36.6333731 -98.96875 36.671875 C-98.70964844 35.51171875 -98.45054687 34.3515625 -98.18359375 33.15625 C-94.41706245 18.19539031 -85.39088228 5.02109567 -72.30200195 -3.15478516 C-49.47861232 -16.40707591 -21.78895086 -15.31542198 0 0 Z M-35.46875 33.234375 C-38.80678089 38.10461678 -39.02545193 42.95852052 -37.96875 48.671875 C-35.94854262 52.20723791 -33.88436075 54.44125448 -29.96875 55.671875 C-26.51105809 56.25529853 -26.51105809 56.25529853 -22.96875 55.671875 C-20.02901719 53.31769124 -20.02901719 53.31769124 -17.96875 50.671875 C-19.020625 50.878125 -20.0725 51.084375 -21.15625 51.296875 C-24.97618271 51.67260609 -26.67254135 51.51387395 -29.96875 49.671875 C-31.83654478 45.93628543 -31.05947745 41.39569651 -30.84375 37.296875 C-29.96875 35.671875 -29.96875 35.671875 -27.53125 34.421875 C-22.27557537 33.31541718 -16.85650841 32.29422878 -11.83984375 34.6875 C-8.19333611 37.21493327 -5.37391524 39.59050193 -4.484375 44.16015625 C-3.73194193 52.16029021 -4.54125745 57.54620449 -9.4140625 64.0625 C-14.25573329 69.07448081 -20.87209366 70.53721405 -27.60713196 70.83009338 C-29.0314026 70.85059605 -30.45575301 70.8659685 -31.88012695 70.87719727 C-32.66114273 70.88709686 -33.44215851 70.89699646 -34.24684143 70.90719604 C-36.81687434 70.93867067 -39.3869257 70.9635127 -41.95703125 70.98828125 C-43.74350961 71.00886291 -45.52998322 71.0298597 -47.31645203 71.05125427 C-52.00994013 71.10634975 -56.70347127 71.15581409 -61.39703369 71.20410156 C-66.18985813 71.25440822 -70.98262035 71.31004638 -75.77539062 71.36523438 C-85.17312389 71.47266269 -94.57091126 71.57414149 -103.96875 71.671875 C-104.35093767 73.32802157 -104.68270102 74.99644524 -104.96875 76.671875 C-103.00101314 78.63961186 -99.16046722 77.82899356 -96.47070312 77.83300781 C-95.68522095 77.83797272 -94.89973877 77.84293762 -94.0904541 77.84805298 C-91.47696062 77.86272301 -88.863528 77.86948754 -86.25 77.875 C-84.4345296 77.88075116 -82.61905922 77.88650889 -80.80358887 77.89227295 C-76.9868949 77.90279919 -73.17022208 77.90863 -69.35351562 77.91210938 C-64.47906602 77.91757219 -59.60489886 77.94154562 -54.73053741 77.97008133 C-50.97456064 77.98877992 -47.21865059 77.99391732 -43.46263123 77.99544525 C-41.66701223 77.99846026 -39.87139408 78.00644961 -38.07582092 78.01963043 C-25.71138646 78.1038521 -14.57710251 78.16569317 -5.15234375 68.8828125 C1.21201223 62.00027305 3.65701262 56.02548431 3.375 46.6015625 C2.47114264 38.89823275 -2.02956955 33.4181968 -7.96875 28.671875 C-17.81693599 23.01828674 -28.02064313 24.73969573 -35.46875 33.234375 Z M13.03125 67.671875 C11.9175 68.5071875 11.9175 68.5071875 10.78125 69.359375 C8.23963366 72.71793944 8.30927132 75.50155517 8.03125 79.671875 C9.02125 79.671875 10.01125 79.671875 11.03125 79.671875 C11.299375 79.07375 11.5675 78.475625 11.84375 77.859375 C13.43274451 74.93227985 15.05020619 73.1623969 18.03125 71.671875 C22.4443516 71.15218543 25.89284151 70.81806863 29.53125 73.546875 C31.91543459 76.92446983 32.2508779 79.37049663 32.5546875 83.50390625 C31.70705113 87.01463898 29.80082491 88.42978401 27.03125 90.671875 C24.14129969 91.18143413 21.83536978 91.37054637 18.9453125 91.34375 C18.10007019 91.3561824 17.25482788 91.36861481 16.38397217 91.38142395 C13.47447589 91.418232 10.56596438 91.41957425 7.65625 91.421875 C5.55417651 91.44164626 3.45212435 91.46379598 1.35009766 91.48803711 C-3.64742102 91.54114535 -8.64487267 91.57801824 -13.64257812 91.60693359 C-24.90278808 91.67478291 -36.1622398 91.81187244 -47.421875 91.94140625 C-64.59623326 92.13701554 -81.7706536 92.32104751 -98.9453125 92.48828125 C-99.91972542 92.49777109 -100.89413834 92.50726093 -101.89807892 92.51703835 C-107.25496498 92.56910323 -112.61185529 92.62070817 -117.96875 92.671875 C-118.62875 93.991875 -119.28875 95.311875 -119.96875 96.671875 C-116.53522173 98.96089384 -115.27387599 98.92798412 -111.23298645 98.94602966 C-110.03719971 98.95600479 -108.84141296 98.96597992 -107.60939026 98.97625732 C-105.63868813 98.97725433 -105.63868813 98.97725433 -103.62817383 98.97827148 C-102.23185787 98.98589237 -100.83554612 98.99431975 -99.4392395 99.00349426 C-95.64353844 99.02545918 -91.84791795 99.03424135 -88.0521605 99.03932071 C-85.6792971 99.04296335 -83.30645482 99.04920307 -80.93359947 99.0563221 C-72.65095467 99.08082804 -64.36837255 99.09386998 -56.08569336 99.09741211 C-48.37337486 99.10104349 -40.66145529 99.13090705 -32.94925863 99.17281669 C-26.32321178 99.2075574 -19.69729681 99.22296124 -13.07115954 99.22365814 C-9.11591018 99.22444998 -5.16106666 99.2331444 -1.20591164 99.26165581 C2.51824292 99.28790019 6.24165717 99.29000697 9.96586227 99.27400017 C11.97537144 99.27133099 13.98486658 99.29332833 15.99424744 99.31619263 C25.43190475 99.24003181 30.01169136 97.105248 37.03125 91.109375 C39.98883368 86.02602805 39.88336985 81.41579397 39.03125 75.671875 C36.61189724 70.65395816 33.0320769 67.17228845 28.03125 64.671875 C22.37705072 64.15148852 17.5943205 63.91405224 13.03125 67.671875 Z M-93.96875 112.671875 C-94.6502323 114.56366703 -94.6502323 114.56366703 -94.96875 116.671875 C-92.08706656 119.55355844 -89.16799658 118.97960283 -85.30615234 118.99072266 C-84.12065544 119.00579109 -84.12065544 119.00579109 -82.91120911 119.02116394 C-80.29237615 119.05211634 -77.67364595 119.06906433 -75.0546875 119.0859375 C-73.24149687 119.10463947 -71.42831502 119.12421215 -69.61514282 119.1446228 C-64.83778047 119.19605265 -60.06038987 119.23562013 -55.28289795 119.27276611 C-50.40988108 119.31273791 -45.53698283 119.36386129 -40.6640625 119.4140625 C-31.09904153 119.51095019 -21.53395375 119.59531371 -11.96875 119.671875 C-11.96875 120.331875 -11.96875 120.991875 -11.96875 121.671875 C-11.30875 121.671875 -10.64875 121.671875 -9.96875 121.671875 C-8.28478703 127.0979779 -7.36408521 130.33231217 -9.96875 135.671875 C-13.68897229 137.53198615 -17.91905238 137.25394163 -21.96875 136.671875 C-24.48922733 135.25843085 -25.95057867 133.79626588 -27.96875 131.671875 C-28.94164325 134.76744443 -29.14082681 136.24674406 -27.90625 139.296875 C-24.65552924 143.28162948 -21.46768126 144.51409276 -16.40625 145.046875 C-10.51194312 144.4038597 -7.30702879 141.23593311 -3.203125 137.26953125 C-0.38472197 133.6216615 -0.58722669 129.09754538 -0.96875 124.671875 C-3.51996178 119.67149991 -7.25458368 115.70716891 -11.96875 112.671875 C-14.77434186 111.89057873 -17.39281224 111.90642611 -20.29077148 111.99072266 C-21.09158646 111.9898465 -21.89240143 111.98897034 -22.71748352 111.98806763 C-25.34262498 111.99222029 -27.96515348 112.03875704 -30.58984375 112.0859375 C-32.41828516 112.09713802 -34.24674467 112.10567417 -36.07521057 112.11166382 C-40.87114804 112.13449494 -45.66598288 112.19336809 -50.46148682 112.2598877 C-55.36154263 112.32143419 -60.26177786 112.34870516 -65.16210938 112.37890625 C-74.76480548 112.44311752 -84.3666858 112.54542704 -93.96875 112.671875 Z " fill="#FFFFFF" transform="translate(226.96875,99.328125)"/>
<path d="M0 0 C6.83124611 4.98111696 8.44705298 15.17865435 9.7265625 23.2043457 C10.27602667 27.01295563 10.75142079 30.83002966 11.209198 34.65063477 C11.70488787 38.7618072 12.2454395 42.8670679 12.78515625 46.97265625 C12.88953506 47.76999176 12.99391388 48.56732727 13.10145569 49.38882446 C15.26118795 65.694414 19.24054607 81.27186467 24 97 C23.93941406 96.27562744 23.87882813 95.55125488 23.81640625 94.80493164 C22.46053954 78.01174019 21.78371349 61.28639064 21.75 44.4375 C21.74500488 43.57158234 21.74000977 42.70566467 21.73486328 41.81350708 C21.5923001 11.76368323 21.5923001 11.76368323 28 5 C33.51638508 0.83456637 37.14174411 -0.12940105 44 0 C45.16253687 4.37158432 44.88038045 8.37305699 44.44140625 12.81640625 C44.30068737 14.38911543 44.16049061 15.96187139 44.02075195 17.53466797 C43.94555328 18.35594177 43.87035461 19.17721558 43.7928772 20.02337646 C42.24597139 37.07274156 41.58556708 53.87435652 42 71 C47.27749883 58.16570345 51.45170567 45.23219258 55.1875 31.875 C56.19260868 28.28637555 57.20855109 24.70105642 58.23046875 21.1171875 C58.45034958 20.31811981 58.67023041 19.51905212 58.89677429 18.69577026 C62.74823464 5.19063104 62.74823464 5.19063104 68.25 1.5 C72.27221038 -0.45463788 75.58775834 -0.5234863 80 0 C82.26177025 3.39265538 82.18491627 4.02779778 81.75 7.90234375 C81.64042969 8.88187012 81.53085937 9.86139648 81.41796875 10.87060547 C80.71689508 16.1196489 79.88037584 21.34085056 79 26.5625 C76.91804582 38.95616199 75.81330376 50.9037357 75.81469727 63.46899414 C75.81249385 65.69371214 75.79422478 67.91794624 75.77539062 70.14257812 C75.77245855 71.57812333 75.77047251 73.01367085 75.76953125 74.44921875 C75.76542236 75.73143311 75.76131348 77.01364746 75.75708008 78.3347168 C76.01263512 82.19064427 76.62850928 85.38674276 78 89 C78.99 89.33 79.98 89.66 81 90 C85.88184797 72.60545433 87.39133591 56.27094017 86.75097656 38.18457031 C86.51667977 26.93511465 88.66739742 16.75838641 96 8 C97.65 8.33 99.3 8.66 101 9 C102.98324744 15.32731447 102.24408727 22.42043413 102.25 29 C102.25100708 29.76776764 102.25201416 30.53553528 102.25305176 31.3265686 C102.24227895 43.44708292 101.61783768 55.12663921 99 67 C98.86078125 67.66402832 98.7215625 68.32805664 98.578125 69.01220703 C95.50991529 83.27014913 90.18749229 98.21189757 79.4375 108.4375 C76.723657 110.17714295 75.22796322 110.92314373 72 111 C66.82755607 109.36659665 63.87235154 107.61627926 61 103 C58.01908547 96.27165006 57.10960355 89.78282586 56.3125 82.5 C56.18294922 81.39140625 56.05339844 80.2828125 55.91992188 79.140625 C55.60422711 76.42798848 55.29783213 73.71464574 55 71 C54.79431396 71.56807373 54.58862793 72.13614746 54.37670898 72.72143555 C42.77580341 104.5395001 42.77580341 104.5395001 34 110 C31.8125 111 31.8125 111 30 111 C26.71298862 108.85080025 26.04948571 105.63283516 25 102 C24.57589844 102.48210937 24.15179687 102.96421875 23.71484375 103.4609375 C19.83223513 107.64220832 16.91372561 110.3548663 11 111 C7.60955971 110.13577012 5.79495794 109.20586525 3.84375 106.24609375 C0.74152607 99.86538317 -0.58990269 92.91161332 -2 86 C-4.9254644 85.7763932 -4.9254644 85.7763932 -7 87 C-9.88370333 87.07194869 -12.74239664 87.09291708 -15.625 87.0625 C-16.42679687 87.05798828 -17.22859375 87.05347656 -18.0546875 87.04882812 C-20.03649006 87.03703168 -22.01825433 87.01909605 -24 87 C-24.226875 88.27875 -24.45375 89.5575 -24.6875 90.875 C-26.22298288 97.67192769 -28.60509388 103.86540977 -33.875 108.5625 C-38.44818504 110.66616512 -42.06281338 111.61825105 -46.9375 110.0625 C-47.618125 109.711875 -48.29875 109.36125 -49 109 C-48.51928438 102.93350424 -47.15614116 98.41574853 -44.4375 93 C-43.9434668 91.98099609 -43.9434668 91.98099609 -43.43945312 90.94140625 C-42.63662717 89.28921371 -41.81978216 87.64384516 -41 86 C-41.63808594 85.7215625 -42.27617187 85.443125 -42.93359375 85.15625 C-45 84 -45 84 -46.0625 81.5 C-45.9594958 75.73176465 -43.11709474 70.83767217 -39.703125 66.26171875 C-37.3026458 64.4833821 -34.91612989 64.42442829 -32 64 C-31.66266846 62.98276855 -31.32533691 61.96553711 -30.9777832 60.91748047 C-29.70269376 57.07384802 -28.42548855 53.23092119 -27.14770508 49.38818359 C-26.59929339 47.73797901 -26.05142436 46.08759397 -25.50415039 44.43701172 C-24.70869046 42.03823706 -23.91113066 39.64016832 -23.11328125 37.2421875 C-22.8526741 36.45484222 -22.59206696 35.66749695 -22.32356262 34.85629272 C-21.1002807 31.18475502 -19.84448425 27.53666718 -18.46557617 23.92041016 C-18.00256104 22.6988623 -17.5395459 21.47731445 -17.0625 20.21875 C-16.64742188 19.16365234 -16.23234375 18.10855469 -15.8046875 17.02148438 C-14.49503375 12.10392526 -15.47252964 7.76726419 -17 3 C-11.49994553 -0.79139784 -6.50801812 -1.04851403 0 0 Z M-10 38 C-11.17322847 41.93557529 -12.33745371 45.87375727 -13.5 49.8125 C-13.83386719 50.93205078 -14.16773438 52.05160156 -14.51171875 53.20507812 C-14.82753906 54.27822266 -15.14335937 55.35136719 -15.46875 56.45703125 C-15.76201172 57.44678955 -16.05527344 58.43654785 -16.35742188 59.45629883 C-17.12246074 62.04750335 -17.12246074 62.04750335 -17 65 C-13.04 65 -9.08 65 -5 65 C-5.44861424 61.06116694 -5.90842693 57.12421029 -6.375 53.1875 C-6.50132812 52.06794922 -6.62765625 50.94839844 -6.7578125 49.79492188 C-6.88671875 48.72177734 -7.015625 47.64863281 -7.1484375 46.54296875 C-7.26364746 45.55321045 -7.37885742 44.56345215 -7.49755859 43.54370117 C-7.87673819 40.77002867 -7.87673819 40.77002867 -10 38 Z " fill="#FFFFFF" transform="translate(490,115)"/>
<path d="M0 0 C6.83124611 4.98111696 8.44705298 15.17865435 9.7265625 23.2043457 C10.27602667 27.01295563 10.75142079 30.83002966 11.209198 34.65063477 C11.70488787 38.7618072 12.2454395 42.8670679 12.78515625 46.97265625 C12.88953506 47.76999176 12.99391388 48.56732727 13.10145569 49.38882446 C15.26118795 65.694414 19.24054607 81.27186467 24 97 C24.18006592 95.8864917 24.18006592 95.8864917 24.36376953 94.75048828 C28.03871997 72.23407039 32.25220613 49.83109782 39 28 C38.34 28.33 37.68 28.66 37 29 C32.32422709 29.89377606 28.38072258 30.59173825 23.9375 28.6875 C22 27 22 27 21 25 C20.64877798 17.05932829 23.35569743 11.29638035 28 5 C28.4125 4.41863281 28.825 3.83726563 29.25 3.23828125 C34.98933286 -0.82280919 47.40572423 1.91386919 54.10107422 2.98193359 C54.85146973 3.11164551 55.60186523 3.24135742 56.375 3.375 C57.47158936 3.56376709 57.47158936 3.56376709 58.59033203 3.75634766 C63.7368021 4.7368021 63.7368021 4.7368021 66 7 C67.69260399 11.65466098 66.66860952 16.45389038 65 21 C62.92417427 23.60507309 62.1931636 23.95833726 58.8125 24.6875 C57.884375 24.790625 56.95625 24.89375 56 25 C56.18060974 25.70107376 56.36121948 26.40214752 56.54730225 27.12446594 C57.0549949 30.34932736 56.77056411 32.79021376 56.24316406 36.00854492 C55.9572641 37.79146187 55.9572641 37.79146187 55.66558838 39.61039734 C55.45110046 40.8875209 55.23661255 42.16464447 55.015625 43.48046875 C54.79659711 44.81690592 54.57816206 46.15344036 54.36029053 47.49006653 C53.90173662 50.29097044 53.43703691 53.09076354 52.96777344 55.88989258 C52.37116063 59.45074817 51.78819071 63.01366738 51.20972061 66.57750988 C50.75999288 69.34012148 50.30367718 72.10161431 49.84539032 74.86281776 C49.52376145 76.80630318 49.20691716 78.75057848 48.89019775 80.69487 C45.32954233 101.79807957 45.32954233 101.79807957 38 108 C35.53904037 109.66780266 33.97620198 110.24242131 31 111 C27.44597877 109.73634801 26.34110745 108.6984581 24.6875 105.3125 C24.460625 104.549375 24.23375 103.78625 24 103 C23.48050781 103.49371094 22.96101562 103.98742187 22.42578125 104.49609375 C21.72839844 105.13675781 21.03101563 105.77742188 20.3125 106.4375 C19.62800781 107.07558594 18.94351563 107.71367187 18.23828125 108.37109375 C15.73108885 110.19569973 14.06921944 110.71782983 11 111 C7.74603074 110.0702945 5.74419174 109.1187849 3.8359375 106.25 C0.75624699 99.85552809 -0.58900596 92.91600866 -2 86 C-4.9254644 85.7763932 -4.9254644 85.7763932 -7 87 C-9.88370333 87.07194869 -12.74239664 87.09291708 -15.625 87.0625 C-16.42679688 87.05798828 -17.22859375 87.05347656 -18.0546875 87.04882812 C-20.03649006 87.03703168 -22.01825433 87.01909605 -24 87 C-24.226875 88.27875 -24.45375 89.5575 -24.6875 90.875 C-26.22298288 97.67192769 -28.60509388 103.86540977 -33.875 108.5625 C-38.44818504 110.66616512 -42.06281338 111.61825105 -46.9375 110.0625 C-47.618125 109.711875 -48.29875 109.36125 -49 109 C-48.51928438 102.93350424 -47.15614116 98.41574853 -44.4375 93 C-43.9434668 91.98099609 -43.9434668 91.98099609 -43.43945312 90.94140625 C-42.63662717 89.28921371 -41.81978216 87.64384516 -41 86 C-41.63808594 85.7215625 -42.27617188 85.443125 -42.93359375 85.15625 C-45 84 -45 84 -46.0625 81.5 C-45.9594958 75.73176465 -43.11709474 70.83767217 -39.703125 66.26171875 C-37.3026458 64.4833821 -34.91612989 64.42442829 -32 64 C-31.66266846 62.98276855 -31.32533691 61.96553711 -30.9777832 60.91748047 C-29.70269376 57.07384802 -28.42548855 53.23092119 -27.14770508 49.38818359 C-26.59929339 47.73797901 -26.05142436 46.08759397 -25.50415039 44.43701172 C-24.70869046 42.03823706 -23.91113066 39.64016832 -23.11328125 37.2421875 C-22.8526741 36.45484222 -22.59206696 35.66749695 -22.32356262 34.85629272 C-21.1002807 31.18475502 -19.84448425 27.53666718 -18.46557617 23.92041016 C-18.00256104 22.6988623 -17.5395459 21.47731445 -17.0625 20.21875 C-16.64742187 19.16365234 -16.23234375 18.10855469 -15.8046875 17.02148438 C-14.49503375 12.10392526 -15.47252964 7.76726419 -17 3 C-11.49994553 -0.79139784 -6.50801812 -1.04851403 0 0 Z M-10 38 C-11.17322847 41.93557529 -12.33745371 45.87375727 -13.5 49.8125 C-13.83386719 50.93205078 -14.16773438 52.05160156 -14.51171875 53.20507812 C-14.82753906 54.27822266 -15.14335938 55.35136719 -15.46875 56.45703125 C-15.76201172 57.44678955 -16.05527344 58.43654785 -16.35742188 59.45629883 C-17.12246074 62.04750335 -17.12246074 62.04750335 -17 65 C-13.04 65 -9.08 65 -5 65 C-5.44861424 61.06116694 -5.90842693 57.12421029 -6.375 53.1875 C-6.50132812 52.06794922 -6.62765625 50.94839844 -6.7578125 49.79492188 C-6.88671875 48.72177734 -7.015625 47.64863281 -7.1484375 46.54296875 C-7.26364746 45.55321045 -7.37885742 44.56345215 -7.49755859 43.54370117 C-7.87673819 40.77002867 -7.87673819 40.77002867 -10 38 Z " fill="#FFFFFF" transform="translate(787,115)"/>
<path d="M0 0 C2.9336317 0.60841232 4.19624742 2.00599639 5.90234375 4.39453125 C8.06055769 10.86917307 6.72923646 17.45379475 5.40625 23.98046875 C5.25324936 24.76346344 5.10024872 25.54645813 4.94261169 26.35317993 C4.62079733 27.99249958 4.29539912 29.63111945 3.96655273 31.26904297 C3.46234578 33.781981 2.96953848 36.29695591 2.47851562 38.8125 C2.16341713 40.4102859 1.84768471 42.00794694 1.53125 43.60546875 C1.38329483 44.3575058 1.23533966 45.10954285 1.082901 45.8843689 C0.01910687 51.16100501 0.01910687 51.16100501 -1.09765625 53.39453125 C4.51234375 53.39453125 10.12234375 53.39453125 15.90234375 53.39453125 C16.12148438 51.98945313 16.340625 50.584375 16.56640625 49.13671875 C18.24733812 38.73702772 20.19444547 28.50169438 22.96484375 18.33203125 C23.20992676 17.42372559 23.45500977 16.51541992 23.70751953 15.57958984 C26.8345877 4.4622873 26.8345877 4.4622873 30.90234375 0.39453125 C32.9609375 0.09375 32.9609375 0.09375 35.33984375 0.08203125 C36.51353516 0.05689453 36.51353516 0.05689453 37.7109375 0.03125 C40.42159783 0.4806108 41.2495501 1.23629612 42.90234375 3.39453125 C45.86308966 12.27676897 43.45850878 22.25900224 41.52734375 31.14453125 C41.305625 32.21574219 41.08390625 33.28695312 40.85546875 34.390625 C39.66301167 40.09337562 38.36016752 45.75397947 36.90234375 51.39453125 C37.70671875 51.76578125 38.51109375 52.13703125 39.33984375 52.51953125 C41.90234375 54.39453125 41.90234375 54.39453125 42.96484375 57.01953125 C42.84375182 63.55849551 39.50061076 69.79626424 34.90234375 74.39453125 C33.91234375 74.39453125 32.92234375 74.39453125 31.90234375 74.39453125 C31.7321875 75.31492187 31.56203125 76.2353125 31.38671875 77.18359375 C26.2075701 104.23638087 26.2075701 104.23638087 18.58984375 110.20703125 C15.16700126 111.71945003 12.60555782 111.74389107 8.90234375 111.39453125 C6.21501532 108.70720282 6.57203231 107.34927695 6.52734375 103.58203125 C6.63084256 93.6564949 8.83863749 84.06815433 10.90234375 74.39453125 C2.98234375 74.88953125 2.98234375 74.88953125 -5.09765625 75.39453125 C-5.4121875 77.17859375 -5.72671875 78.96265625 -6.05078125 80.80078125 C-6.48243288 83.1654815 -6.91476027 85.53005848 -7.34765625 87.89453125 C-7.55261719 89.06757813 -7.75757813 90.240625 -7.96875 91.44921875 C-9.1970595 98.07464576 -10.55481804 103.62712021 -14.09765625 109.39453125 C-17.19546573 111.45973757 -18.05170435 111.68930149 -21.59765625 111.70703125 C-22.7578125 111.73216797 -22.7578125 111.73216797 -23.94140625 111.7578125 C-26.62633611 111.30546019 -27.4564403 110.5311142 -29.09765625 108.39453125 C-32.2746291 98.86361271 -28.22903905 85.96564648 -26.09765625 76.39453125 C-27.08765625 76.06453125 -28.07765625 75.73453125 -29.09765625 75.39453125 C-29.61035578 68.44460431 -29.12439009 63.22588828 -25.09765625 57.39453125 C-24.61256592 57.01248535 -24.12747559 56.63043945 -23.62768555 56.23681641 C-21.39527273 53.54880187 -21.05172 50.57649236 -20.44921875 47.2265625 C-20.24031509 46.15785164 -20.24031509 46.15785164 -20.02719116 45.06755066 C-19.5813548 42.78266654 -19.15052259 40.49534347 -18.72265625 38.20703125 C-17.03167228 29.21291455 -15.25459625 20.30464298 -12.62109375 11.53125 C-12.43028229 10.8705098 -12.23947083 10.20976959 -12.0428772 9.52900696 C-9.91293051 2.75824709 -7.05738603 -0.35484064 0 0 Z " fill="#FFFFFF" transform="translate(397.09765625,114.60546875)"/>
<path d="M0 0 C1.40185547 -0.03347534 1.40185547 -0.03347534 2.83203125 -0.06762695 C10.43049895 -0.04263199 15.61511913 1.81294857 21.4375 6.6875 C30.11041544 17.00123728 32.31986331 28.11645657 32.1875 41.4375 C32.18065186 42.51547852 32.17380371 43.59345703 32.16674805 44.70410156 C31.74662073 66.04719865 26.32524958 87.53538642 11.3125 103.375 C3.73695954 110.50492043 -3.84936959 112.88452531 -14.25 113.4375 C-21.89292084 112.95344835 -29.61569079 112.07180921 -35.25 106.4375 C-36.5309945 98.12789995 -34.21829792 89.40452068 -32.6953125 81.26953125 C-32.43039007 79.82097924 -32.16615089 78.37230212 -31.90255737 76.92350769 C-31.35140789 73.90444398 -30.79450238 70.88652311 -30.23291016 67.86938477 C-29.51613774 64.01788009 -28.81019017 60.1644938 -28.10807991 56.31029224 C-27.56369505 53.32506429 -27.01548153 50.34055027 -26.46593857 47.35626793 C-26.20448897 45.93594429 -25.94376662 44.51548656 -25.68381119 43.09488869 C-25.31899138 41.1066257 -24.94889779 39.1193326 -24.57861328 37.13208008 C-24.36987579 36.0053035 -24.16113831 34.87852692 -23.94607544 33.71760559 C-23.20476808 30.22435431 -22.2681198 26.85904598 -21.25 23.4375 C-24.88 24.7575 -28.51 26.0775 -32.25 27.4375 C-34.25 25.4375 -34.25 25.4375 -34.3671875 23.5546875 C-33.58583932 16.32091565 -31.60957727 11.09202443 -26.75 5.625 C-19.03159779 0.02537487 -9.14802326 0.13135857 0 0 Z M-1.25 20.4375 C-1.39589569 21.33872589 -1.54179138 22.23995178 -1.69210815 23.16848755 C-3.06983473 31.67336539 -4.45234411 40.17744903 -5.84019279 48.68068123 C-6.55348182 53.05199817 -7.26493653 57.42359702 -7.97216797 61.79589844 C-8.65511463 66.01763285 -9.34292033 70.23854968 -10.03406143 74.45895004 C-10.29652202 76.06695423 -10.55724877 77.67524243 -10.81618881 79.28381729 C-11.17996215 81.54171965 -11.54996125 83.79852137 -11.92138672 86.05517578 C-12.23449295 87.98044601 -12.23449295 87.98044601 -12.55392456 89.9446106 C-13.21029802 93.23827642 -14.1103159 96.28228909 -15.25 99.4375 C-10.70946318 99.80074295 -7.24414766 99.90533419 -3.0625 97.9375 C8.13667584 87.98267703 11.74084238 73.93491074 12.75 59.4375 C13.39200543 47.82303808 12.39561343 33.43545236 5.484375 23.64453125 C4.09743673 22.06866903 4.09743673 22.06866903 1.75 20.4375 C0.76 20.4375 -0.23 20.4375 -1.25 20.4375 Z " fill="#FFFFFF" transform="translate(704.25,112.5625)"/>
<path d="M0 0 C6.83124611 4.98111696 8.44705298 15.17865435 9.7265625 23.2043457 C10.27600123 27.01267554 10.75121073 30.82948148 11.20892334 34.64981079 C11.7054258 38.76524252 12.24803662 42.87459722 12.7890625 46.984375 C12.89364777 47.78232986 12.99823303 48.58028473 13.10598755 49.40242004 C15.0512783 64.0929477 18.32408234 78.03041429 22.89013672 92.13598633 C23.19193848 93.10173584 23.49374023 94.06748535 23.8046875 95.0625 C24.08296387 95.91972656 24.36124023 96.77695313 24.64794922 97.66015625 C25.07623659 100.5066931 24.55201234 101.62136888 23 104 C20.19947474 107.01215186 17.24716112 109.48288441 13.4375 111.0625 C9.75933147 110.96818799 8.00000805 110.17021859 5 108 C0.71025538 101.55098796 -0.47896722 93.4553652 -2 86 C-4.9254644 85.7763932 -4.9254644 85.7763932 -7 87 C-9.88370333 87.07194869 -12.74239664 87.09291708 -15.625 87.0625 C-16.42679688 87.05798828 -17.22859375 87.05347656 -18.0546875 87.04882812 C-20.03649006 87.03703168 -22.01825433 87.01909605 -24 87 C-24.226875 88.27875 -24.45375 89.5575 -24.6875 90.875 C-26.22298288 97.67192769 -28.60509388 103.86540977 -33.875 108.5625 C-38.44818504 110.66616512 -42.06281338 111.61825105 -46.9375 110.0625 C-47.618125 109.711875 -48.29875 109.36125 -49 109 C-48.51928438 102.93350424 -47.15614116 98.41574853 -44.4375 93 C-43.9434668 91.98099609 -43.9434668 91.98099609 -43.43945312 90.94140625 C-42.63662717 89.28921371 -41.81978216 87.64384516 -41 86 C-41.63808594 85.7215625 -42.27617188 85.443125 -42.93359375 85.15625 C-45 84 -45 84 -46.0625 81.5 C-45.9594958 75.73176465 -43.11709474 70.83767217 -39.703125 66.26171875 C-37.3026458 64.4833821 -34.91612989 64.42442829 -32 64 C-31.66266846 62.98276855 -31.32533691 61.96553711 -30.9777832 60.91748047 C-29.70269376 57.07384802 -28.42548855 53.23092119 -27.14770508 49.38818359 C-26.59929339 47.73797901 -26.05142436 46.08759397 -25.50415039 44.43701172 C-24.70869046 42.03823706 -23.91113066 39.64016832 -23.11328125 37.2421875 C-22.8526741 36.45484222 -22.59206696 35.66749695 -22.32356262 34.85629272 C-21.1002807 31.18475502 -19.84448425 27.53666718 -18.46557617 23.92041016 C-18.00256104 22.6988623 -17.5395459 21.47731445 -17.0625 20.21875 C-16.64742187 19.16365234 -16.23234375 18.10855469 -15.8046875 17.02148438 C-14.49503375 12.10392526 -15.47252964 7.76726419 -17 3 C-11.49994553 -0.79139784 -6.50801812 -1.04851403 0 0 Z M-10 38 C-11.17322847 41.93557529 -12.33745371 45.87375727 -13.5 49.8125 C-13.83386719 50.93205078 -14.16773438 52.05160156 -14.51171875 53.20507812 C-14.82753906 54.27822266 -15.14335938 55.35136719 -15.46875 56.45703125 C-15.76201172 57.44678955 -16.05527344 58.43654785 -16.35742188 59.45629883 C-17.12246074 62.04750335 -17.12246074 62.04750335 -17 65 C-13.04 65 -9.08 65 -5 65 C-5.44861424 61.06116694 -5.90842693 57.12421029 -6.375 53.1875 C-6.50132812 52.06794922 -6.62765625 50.94839844 -6.7578125 49.79492188 C-6.88671875 48.72177734 -7.015625 47.64863281 -7.1484375 46.54296875 C-7.26364746 45.55321045 -7.37885742 44.56345215 -7.49755859 43.54370117 C-7.87673819 40.77002867 -7.87673819 40.77002867 -10 38 Z " fill="#FFFFFF" transform="translate(899,115)"/>
<path d="M0 0 C6.83124611 4.98111696 8.44705298 15.17865435 9.7265625 23.2043457 C10.27600123 27.01267554 10.75121073 30.82948148 11.20892334 34.64981079 C11.7054258 38.76524252 12.24803662 42.87459722 12.7890625 46.984375 C12.89364777 47.78232986 12.99823303 48.58028473 13.10598755 49.40242004 C15.0512783 64.0929477 18.32408234 78.03041429 22.89013672 92.13598633 C23.19193848 93.10173584 23.49374023 94.06748535 23.8046875 95.0625 C24.08296387 95.91972656 24.36124023 96.77695313 24.64794922 97.66015625 C25.07623659 100.5066931 24.55201234 101.62136888 23 104 C20.19947474 107.01215186 17.24716112 109.48288441 13.4375 111.0625 C9.75933147 110.96818799 8.00000805 110.17021859 5 108 C0.71025538 101.55098796 -0.47896722 93.4553652 -2 86 C-4.9254644 85.7763932 -4.9254644 85.7763932 -7 87 C-9.88370333 87.07194869 -12.74239664 87.09291708 -15.625 87.0625 C-16.42679688 87.05798828 -17.22859375 87.05347656 -18.0546875 87.04882812 C-20.03649006 87.03703168 -22.01825433 87.01909605 -24 87 C-24.226875 88.27875 -24.45375 89.5575 -24.6875 90.875 C-26.22298288 97.67192769 -28.60509388 103.86540977 -33.875 108.5625 C-38.44818504 110.66616512 -42.06281338 111.61825105 -46.9375 110.0625 C-47.618125 109.711875 -48.29875 109.36125 -49 109 C-48.51928438 102.93350424 -47.15614116 98.41574853 -44.4375 93 C-43.9434668 91.98099609 -43.9434668 91.98099609 -43.43945312 90.94140625 C-42.63662717 89.28921371 -41.81978216 87.64384516 -41 86 C-41.63808594 85.7215625 -42.27617188 85.443125 -42.93359375 85.15625 C-45 84 -45 84 -46.0625 81.5 C-45.9594958 75.73176465 -43.11709474 70.83767217 -39.703125 66.26171875 C-37.3026458 64.4833821 -34.91612989 64.42442829 -32 64 C-31.66266846 62.98276855 -31.32533691 61.96553711 -30.9777832 60.91748047 C-29.70269376 57.07384802 -28.42548855 53.23092119 -27.14770508 49.38818359 C-26.59929339 47.73797901 -26.05142436 46.08759397 -25.50415039 44.43701172 C-24.70869046 42.03823706 -23.91113066 39.64016832 -23.11328125 37.2421875 C-22.8526741 36.45484222 -22.59206696 35.66749695 -22.32356262 34.85629272 C-21.1002807 31.18475502 -19.84448425 27.53666718 -18.46557617 23.92041016 C-18.00256104 22.6988623 -17.5395459 21.47731445 -17.0625 20.21875 C-16.64742187 19.16365234 -16.23234375 18.10855469 -15.8046875 17.02148438 C-14.49503375 12.10392526 -15.47252964 7.76726419 -17 3 C-11.49994553 -0.79139784 -6.50801812 -1.04851403 0 0 Z M-10 38 C-11.17322847 41.93557529 -12.33745371 45.87375727 -13.5 49.8125 C-13.83386719 50.93205078 -14.16773438 52.05160156 -14.51171875 53.20507812 C-14.82753906 54.27822266 -15.14335938 55.35136719 -15.46875 56.45703125 C-15.76201172 57.44678955 -16.05527344 58.43654785 -16.35742188 59.45629883 C-17.12246074 62.04750335 -17.12246074 62.04750335 -17 65 C-13.04 65 -9.08 65 -5 65 C-5.44861424 61.06116694 -5.90842693 57.12421029 -6.375 53.1875 C-6.50132812 52.06794922 -6.62765625 50.94839844 -6.7578125 49.79492188 C-6.88671875 48.72177734 -7.015625 47.64863281 -7.1484375 46.54296875 C-7.26364746 45.55321045 -7.37885742 44.56345215 -7.49755859 43.54370117 C-7.87673819 40.77002867 -7.87673819 40.77002867 -10 38 Z " fill="#FFFFFF" transform="translate(643,115)"/>
</svg>
